<?xml version="1.0" encoding="utf-8"?>
<!-- Generator: Adobe Illustrator 25.0.1, SVG Export Plug-In . SVG Version: 6.00 Build 0)  -->
<svg version="1.1" id="Layer_1" xmlns="http://www.w3.org/2000/svg" xmlns:xlink="http://www.w3.org/1999/xlink" x="0px" y="0px"
	 viewBox="0 0 284.2 53.5" style="enable-background:new 0 0 284.2 53.5;" xml:space="preserve" fill="#fff">
<path d="M65.3,22.7h-5.8V0h5.3l10.4,13.7V0H81v22.7h-5.3L65.5,9v13.7H65.3z M155.1,43.9l-10.3-13.7h-5.3v22.7h5.8V39.2l10.3,13.7
	h5.3V30.3h-5.8V43.9z M257.2,43.9l-10.3-13.7h-5.3v22.7h5.8V39.2l10.3,13.7h5.3V30.3h-5.8V43.9z M29,0l-4.6,14.1L19.9,0h-4.6
	l-4.5,14.2L6.2,0H0l8.3,22.7h5l4.5-13.4l4.3,13.4h5L35.4,0H29z M39.9,22.7h6.5L57.8,0h-6.3l-4.6,9l-4.3-9H36l7.8,15L39.9,22.7z
	 M94.3,22.7h-9.5V0h9.5c7.8,0,12.2,5.5,12.2,11.3C106.4,17.1,102.1,22.7,94.3,22.7z M93.9,17.8c4.1,0,6.6-3.2,6.6-6.5
	s-2.4-6.5-6.6-6.5h-3.2v12.8h3.2V17.8z M115,14h9v8.7h5.9V0h-5.9v9h-9.1V0H109v22.7h5.9V14z M138.8,19.5l-1.2,3.2h-6.1l9-22.7h5.9
	l8.8,22.7h-6.1l-1.1-3.2H138.8z M140.5,15h6.2l-3-8.6L140.5,15z M67.3,41.6c0,5.8-4.3,11.3-12.2,11.3h-9.5V30.3H55
	C62.9,30.3,67.3,35.7,67.3,41.6z M61.2,41.6c0-3.3-2.4-6.5-6.6-6.5h-3.2v12.8h3.2C58.9,47.9,61.2,44.9,61.2,41.6z M70.1,52.8h15.5
	v-4.5H76v-4.6h9.1v-4.3H76v-4.7h9.6v-4.5H70.1V52.8z M108.5,35.2h6.3v17.6h5.8V35.2h6.5v-4.9h-18.6
	C108.5,30.3,108.5,35.2,108.5,35.2z M129.8,52.8h5.9V30.3h-5.9V52.8z M177.7,30.3l8.8,22.7h-6.1l-1.1-3.2H170l-1.2,3.2h-6.1l9-22.7
	H177.7z M177.8,45.2l-3-8.6l-3.2,8.6H177.8z M184.2,35.2h6.3v17.6h5.8V35.2h6.5v-4.9h-18.6L184.2,35.2L184.2,35.2z M205.4,52.8h5.9
	V30.3h-5.9V52.8z M238.9,41.6c0,6.2-4.6,11.9-12.4,11.9c-7.9,0-12.4-5.7-12.4-11.9s4.6-12,12.4-12C234.3,29.6,238.9,35.3,238.9,41.6
	z M233,41.6c0-3.4-2.4-6.7-6.5-6.7c-4.1,0-6.5,3.3-6.5,6.7s2.4,6.7,6.5,6.7C230.5,48.2,233,45,233,41.6z M98.4,38.8
	c-2.6-0.7-3.7-1.4-3.7-2.8c0-1.2,1.1-2.1,2.8-2.1c1.8,0,3.3,1.2,3.3,2.6h5.8c0-3.8-3-7.1-9.1-7.1c-5.5,0-9,3-9,6.8
	c0,4.2,3.7,5.8,8.3,7.1c2.5,0.7,3.8,1.4,3.8,3c0,1.4-1.2,2.5-3.2,2.5c-2.4,0-4-1.3-4-3.7h-5.8c0,5.5,4.2,8,9.6,8
	c5.9,0,9.4-2.9,9.4-7.4C106.9,42.3,103.8,40.3,98.4,38.8z M275.9,38.8c-2.6-0.7-3.7-1.4-3.7-2.8c0-1.2,1.1-2.1,2.8-2.1
	c1.8,0,3.3,1.2,3.3,2.6h5.8c0-3.8-3-7.1-9.1-7.1c-5.5,0-9,3-9,6.8c0,4.2,3.7,5.8,8.3,7.1c2.5,0.7,3.8,1.4,3.8,3
	c0,1.4-1.2,2.5-3.2,2.5c-2.4,0-4-1.3-4-3.7h-5.8c0,5.5,4.2,8,9.6,8c5.9,0,9.4-2.9,9.4-7.4C284.3,42.3,281.2,40.3,275.9,38.8z
	 M162.9,9.6l5.1,7.9h3.4l5.1-8v13.2h5.8V0h-5.7L170,10.9L163,0h-5.7v22.7h5.8v-13H162.9z M34.6,36c-3.2,0-5.7,2.5-5.7,5.7
	s2.5,5.7,5.7,5.7c3.2,0,5.7-2.5,5.7-5.7S37.8,36,34.6,36z"/>
</svg>
