<svg xmlns="http://www.w3.org/2000/svg" viewBox="0 0 58.55 57.69"><defs><style>.abe3d209-3ff7-44dd-bf0d-11623caaba1e{fill:none;stroke:#fff;stroke-linecap:round;stroke-linejoin:round;}</style></defs><title>logo</title><g id="e4884cb5-9c53-4cd5-8eec-7c875d89d6b1" data-name="图层 2"><g id="a82967cf-8db1-4742-aa24-f47dce5dab06" data-name="图层 1"><path class="abe3d209-3ff7-44dd-bf0d-11623caaba1e" d="M14.63,53.23A28.31,28.31,0,0,1,4,42.44"/><path class="abe3d209-3ff7-44dd-bf0d-11623caaba1e" d="M4,15.07A28.45,28.45,0,0,1,14.63,4.28"/><path class="abe3d209-3ff7-44dd-bf0d-11623caaba1e" d="M57,28.76A28.26,28.26,0,0,0,14.63,4.28"/><path class="abe3d209-3ff7-44dd-bf0d-11623caaba1e" d="M25.23,15.07A14.16,14.16,0,0,1,42.89,28.76a13.86,13.86,0,0,1-.32,3L53.41,42.57"/><path class="abe3d209-3ff7-44dd-bf0d-11623caaba1e" d="M25.23,42.44a14.13,14.13,0,0,1,0-27.37"/><path class="abe3d209-3ff7-44dd-bf0d-11623caaba1e" d="M4,42.44A28.29,28.29,0,0,1,4,15.07"/><path class="abe3d209-3ff7-44dd-bf0d-11623caaba1e" d="M14.63,53.23a28.29,28.29,0,0,0,29-.45l4.42,4.41,10-10-4.64-4.63"/></g></g></svg>