<svg width="364" height="79" viewBox="0 0 364 79" fill="none" xmlns="http://www.w3.org/2000/svg">
<path d="M16.9627 30.1041C22.1964 27.6886 27.7254 26.2125 33.147 25.5683C33.7375 25.4878 33.9791 25.8904 33.9254 26.3467C33.2276 30.5067 32.7713 34.7472 32.5834 38.9877C32.5297 39.4708 32.2882 39.7928 31.7245 39.9002C28.7185 40.4906 25.793 41.4032 22.5453 42.8793C25.444 47.925 28.9869 52.5681 32.8518 56.4328C33.3081 56.8891 33.5496 57.3722 33.6838 58.1773C34.7037 64.6723 36.4483 71.2209 38.8102 77.4207C38.9444 77.7696 38.9444 78.0111 38.7565 78.199C38.5418 78.4137 38.1929 78.4137 37.8708 78.199C14.3861 63.9745 0.241557 38.3704 0 11.5049C0 10.8607 0.214718 10.3776 0.778351 10.0824C13.232 3.07752 27.2423 -0.277317 41.3063 0.0179089C41.9236 0.0179089 42.1652 0.581521 41.9236 1.09146C39.9912 5.11726 38.3539 9.22358 37.0925 13.3299C36.9583 13.813 36.6362 14.0545 36.1262 14.0814C28.6111 14.4571 21.2839 16.1748 14.574 18.966C15.0571 22.7771 15.8623 26.5077 16.9627 30.1041ZM42.9435 14.1351C42.4872 14.0814 42.1652 13.6788 42.2994 13.1957C43.7756 8.90151 45.4665 4.87571 47.3989 1.1183C47.6136 0.662037 48.0162 0.501005 48.5262 0.554683C59.1279 1.73558 69.1391 5.09042 78.0767 10.0824C78.6135 10.3776 78.855 10.8607 78.855 11.5049C78.6672 36.9479 65.9451 61.2638 44.5002 75.9982C44.0976 76.2935 43.5608 76.1324 43.3998 75.6493C41.8431 71.4625 40.5816 67.222 39.6691 63.1157C39.5349 62.5789 39.6691 62.1495 40.0985 61.8274C53.0889 51.6019 62.1607 36.3307 64.3616 18.966C57.759 16.2285 50.5928 14.5376 42.9972 14.1351H42.9435ZM97.8844 19.6638C97.8844 19.2612 98.1528 18.9929 98.5554 18.9929H129.394C129.77 18.9929 130.065 19.3954 129.931 19.7443L127.167 27.3934C127.005 27.8228 126.71 28.0107 126.254 28.0107H107.386V36.277H123.114C123.489 36.277 123.785 36.6796 123.651 37.0285L120.94 44.5164C120.779 44.9727 120.483 45.1606 120.027 45.1606H107.386V59.0362C107.386 59.4388 107.117 59.7071 106.715 59.7071H98.5554C98.1528 59.7071 97.8844 59.4388 97.8844 59.0362V19.637V19.6638ZM139.298 19.6102C139.459 19.1807 139.754 18.9929 140.211 18.9929H151.134C151.591 18.9929 151.886 19.1807 152.047 19.6102L166.352 58.9825C166.487 59.3314 166.191 59.734 165.816 59.734H157.173C156.717 59.734 156.449 59.5193 156.288 59.0899L153.55 51.1456H137.741L135.004 59.0899C134.869 59.5193 134.574 59.734 134.118 59.734H125.583C125.207 59.734 124.912 59.3314 125.046 58.9825L139.352 19.6102H139.298ZM150.49 42.262L145.632 28.1717L140.774 42.262H150.517H150.49ZM170.352 19.6638C170.352 19.2612 170.62 18.9929 171.023 18.9929H180.497C180.98 18.9929 181.275 19.1539 181.517 19.5833L195.715 43.7113V19.637C195.715 19.2344 195.983 18.966 196.386 18.966H204.384C204.787 18.966 205.055 19.2344 205.055 19.637V59.0362C205.055 59.4388 204.787 59.7071 204.384 59.7071H195.017C194.534 59.7071 194.239 59.5461 193.997 59.1167L179.692 34.8008V59.0362C179.692 59.4388 179.423 59.7071 179.021 59.7071H171.023C170.62 59.7071 170.352 59.4388 170.352 59.0362V19.637V19.6638ZM228.298 50.7162C234.767 50.7162 239.652 45.8315 239.652 39.3634C239.652 32.8953 234.767 28.0107 228.298 28.0107H213.805C213.402 28.0107 213.134 27.7423 213.134 27.3397V19.6638C213.134 19.2612 213.402 18.9929 213.805 18.9929H228.298C240.242 18.9929 249.18 27.7423 249.18 39.3634C249.18 50.9846 240.242 59.734 228.298 59.734H213.805C213.402 59.734 213.134 59.4656 213.134 59.063V40.0076C213.134 37.4579 213.939 35.4718 215.389 34.0225C216.704 32.7074 218.744 31.8486 220.542 31.8486H221.964C222.367 31.8486 222.635 32.117 222.635 32.5196V50.6893H228.298V50.7162ZM255.031 43.6576V19.637C255.031 19.2344 255.299 18.966 255.702 18.966H263.861C264.264 18.966 264.532 19.2344 264.532 19.637V43.6308C264.532 48.247 267.753 51.4677 272.369 51.4677C276.986 51.4677 280.206 48.2739 280.206 43.6308V19.637C280.206 19.2344 280.475 18.966 280.877 18.966H289.037C289.439 18.966 289.708 19.2344 289.708 19.637V43.6308C289.708 53.6416 282.649 60.4855 272.369 60.4855C262.09 60.4855 255.031 53.6416 255.031 43.6308V43.6576ZM325.297 34.7472C325.7 34.7472 325.968 35.0156 325.968 35.4181V42.9598C325.968 43.3624 325.7 43.6308 325.297 43.6308H307.288V50.6893H326.398C326.8 50.6893 327.069 50.9577 327.069 51.3603V59.0362C327.069 59.4388 326.8 59.7071 326.398 59.7071H298.457C298.055 59.7071 297.786 59.4388 297.786 59.0362V19.637C297.786 19.2344 298.055 18.966 298.457 18.966H326.398C326.8 18.966 327.069 19.2344 327.069 19.637V27.3129C327.069 27.7154 326.8 27.9838 326.398 27.9838H307.288V34.7203H325.297V34.7472ZM344.541 50.7162H363.329C363.732 50.7162 364 50.9846 364 51.3872V59.063C364 59.4656 363.732 59.734 363.329 59.734H335.711C335.308 59.734 335.04 59.4656 335.04 59.063V19.637C335.04 19.2344 335.308 18.966 335.711 18.966H343.87C344.273 18.966 344.541 19.2344 344.541 19.637V50.6893V50.7162Z" fill="#0070EB"/>
</svg>
